<svg width="430" height="317" viewBox="0 0 430 317" fill="none" xmlns="http://www.w3.org/2000/svg">
<path d="M352.5 35C374.315 35 392 52.6848 392 74.5C392 96.3153 374.315 114 352.5 114C330.685 114 313 96.3153 313 74.5C313 52.6848 330.685 35 352.5 35ZM352.5 43.9776C335.643 43.9776 321.978 57.6428 321.978 74.5C321.978 91.3573 335.643 105.022 352.5 105.022C369.357 105.022 383.022 91.3572 383.022 74.5C383.022 57.6429 369.357 43.9777 352.5 43.9776Z" fill="white"/>
<circle cx="352.5" cy="74.5" r="14.5" fill="white"/>
<line x1="15" y1="15" x2="415" y2="15" stroke="white" stroke-width="30" stroke-linecap="round"/>
<path d="M118 256L180 181L255 195L320 134" stroke="white" stroke-width="24" stroke-linecap="round"/>
<line x1="94" y1="104.5" x2="181" y2="104.5" stroke="white" stroke-width="15"/>
<line x1="94" y1="131.5" x2="181" y2="131.5" stroke="white" stroke-width="15"/>
<path d="M322.729 48C319.094 53.9762 317 60.9936 317 68.5C317 70.7141 317.185 72.8852 317.535 75H89C77.9543 75 69 83.9543 69 95V272C69 283.046 77.9543 292 89 292H333C344.046 292 353 283.046 353 272V107.844C354.153 107.945 355.32 108 356.5 108C365.756 108 374.267 104.815 381 99.4834V297C381 308.046 372.046 317 361 317H61C49.9543 317 41 308.046 41 297V68C41 56.9543 49.9543 48 61 48H322.729Z" fill="white"/>
</svg>
