<svg width="24" height="24" viewBox="0 0 24 24" fill="none" xmlns="http://www.w3.org/2000/svg">
<path d="M3 3V16C3 18.7614 5.23858 21 8 21H21" stroke="white"/>
<path d="M8 16.5C8 17.3284 7.32843 18 6.5 18C5.67157 18 5 17.3284 5 16.5C5 15.6716 5.67157 15 6.5 15C7.32843 15 8 15.6716 8 16.5Z" fill="white"/>
<path d="M11 8.5C11 9.32843 10.3284 10 9.5 10C8.67157 10 8 9.32843 8 8.5C8 7.67157 8.67157 7 9.5 7C10.3284 7 11 7.67157 11 8.5Z" fill="white"/>
<path d="M17 13.5C17 14.3284 16.3284 15 15.5 15C14.6716 15 14 14.3284 14 13.5C14 12.6716 14.6716 12 15.5 12C16.3284 12 17 12.6716 17 13.5Z" fill="white"/>
<path d="M21 6.5C21 7.32843 20.3284 8 19.5 8C18.6716 8 18 7.32843 18 6.5C18 5.67157 18.6716 5 19.5 5C20.3284 5 21 5.67157 21 6.5Z" fill="white"/>
<path d="M6.99847 15.5008L8.99962 9.49933M14.5 12.5L10.5012 8.9985M16 12.5L19 7.5M8 16.5C8 17.3284 7.32843 18 6.5 18C5.67157 18 5 17.3284 5 16.5C5 15.6716 5.67157 15 6.5 15C7.32843 15 8 15.6716 8 16.5ZM11 8.5C11 9.32843 10.3284 10 9.5 10C8.67157 10 8 9.32843 8 8.5C8 7.67157 8.67157 7 9.5 7C10.3284 7 11 7.67157 11 8.5ZM17 13.5C17 14.3284 16.3284 15 15.5 15C14.6716 15 14 14.3284 14 13.5C14 12.6716 14.6716 12 15.5 12C16.3284 12 17 12.6716 17 13.5ZM21 6.5C21 7.32843 20.3284 8 19.5 8C18.6716 8 18 7.32843 18 6.5C18 5.67157 18.6716 5 19.5 5C20.3284 5 21 5.67157 21 6.5Z" stroke="white" stroke-width="0.5"/>
</svg>
