<svg width="24" height="24" viewBox="0 0 24 24" fill="none" xmlns="http://www.w3.org/2000/svg">
  <rect x="2" y="2" width="9" height="9" rx="1.5" stroke="#9ca3af" stroke-width="1.4" fill="none"/>
  <rect x="13" y="2" width="9" height="9" rx="1.5" stroke="#9ca3af" stroke-width="1.4" fill="none"/>
  <rect x="2" y="13" width="9" height="9" rx="1.5" stroke="#9ca3af" stroke-width="1.4" fill="none"/>
  <rect x="13" y="13" width="9" height="9" rx="1.5" stroke="#9ca3af" stroke-width="1.4" fill="none"/>
  <line x1="4.5" y1="9" x2="4.5" y2="5.5" stroke="#9ca3af" stroke-width="1.2" stroke-linecap="round"/>
  <line x1="6.5" y1="9" x2="6.5" y2="6.5" stroke="#9ca3af" stroke-width="1.2" stroke-linecap="round"/>
  <line x1="8.5" y1="9" x2="8.5" y2="4.5" stroke="#9ca3af" stroke-width="1.2" stroke-linecap="round"/>
  <line x1="15.5" y1="9" x2="15.5" y2="6" stroke="#9ca3af" stroke-width="1.2" stroke-linecap="round"/>
  <line x1="17.5" y1="9" x2="17.5" y2="4" stroke="#9ca3af" stroke-width="1.2" stroke-linecap="round"/>
  <line x1="19.5" y1="9" x2="19.5" y2="7" stroke="#9ca3af" stroke-width="1.2" stroke-linecap="round"/>
  <line x1="4.5" y1="20" x2="4.5" y2="16" stroke="#9ca3af" stroke-width="1.2" stroke-linecap="round"/>
  <line x1="6.5" y1="20" x2="6.5" y2="18" stroke="#9ca3af" stroke-width="1.2" stroke-linecap="round"/>
  <line x1="8.5" y1="20" x2="8.5" y2="15" stroke="#9ca3af" stroke-width="1.2" stroke-linecap="round"/>
  <line x1="15.5" y1="20" x2="15.5" y2="17" stroke="#9ca3af" stroke-width="1.2" stroke-linecap="round"/>
  <line x1="17.5" y1="20" x2="17.5" y2="15.5" stroke="#9ca3af" stroke-width="1.2" stroke-linecap="round"/>
  <line x1="19.5" y1="20" x2="19.5" y2="18" stroke="#9ca3af" stroke-width="1.2" stroke-linecap="round"/>
</svg>
