<svg width="19" height="20" viewBox="0 0 19 20" fill="none" xmlns="http://www.w3.org/2000/svg">
<path d="M0.75 10.25V17.25C0.75 17.7159 0.75 17.9489 0.82612 18.1327C0.927614 18.3777 1.12229 18.5724 1.36732 18.6739C1.55109 18.75 1.78406 18.75 2.25 18.75C2.71594 18.75 2.94891 18.75 3.13268 18.6739C3.37771 18.5724 3.57239 18.3777 3.67388 18.1327C3.75 17.9489 3.75 17.7159 3.75 17.25V10.25C3.75 9.78406 3.75 9.55109 3.67388 9.36732C3.57239 9.12229 3.37771 8.92761 3.13268 8.82612C2.94891 8.75 2.71594 8.75 2.25 8.75C1.78406 8.75 1.55109 8.75 1.36732 8.82612C1.12229 8.92761 0.927614 9.12229 0.82612 9.36732C0.75 9.55109 0.75 9.78406 0.75 10.25Z" stroke="#141B34" stroke-width="1.5" stroke-linecap="square" stroke-linejoin="round"/>
<path d="M7.75 12.25V17.2495C7.75 17.7154 7.75 17.9484 7.82612 18.1322C7.92761 18.3772 8.12229 18.5719 8.36732 18.6734C8.55109 18.7495 8.78406 18.7495 9.25 18.7495C9.71594 18.7495 9.94891 18.7495 10.1327 18.6734C10.3777 18.5719 10.5724 18.3772 10.6739 18.1322C10.75 17.9484 10.75 17.7154 10.75 17.2495V12.25C10.75 11.7841 10.75 11.5511 10.6739 11.3673C10.5724 11.1223 10.3777 10.9276 10.1327 10.8261C9.94891 10.75 9.71594 10.75 9.25 10.75C8.78406 10.75 8.55109 10.75 8.36732 10.8261C8.12229 10.9276 7.92761 11.1223 7.82612 11.3673C7.75 11.5511 7.75 11.7841 7.75 12.25Z" stroke="#141B34" stroke-width="1.5" stroke-linecap="square" stroke-linejoin="round"/>
<path d="M14.75 8.25V17.25C14.75 17.7159 14.75 17.9489 14.8261 18.1327C14.9276 18.3777 15.1223 18.5724 15.3673 18.6739C15.5511 18.75 15.7841 18.75 16.25 18.75C16.7159 18.75 16.9489 18.75 17.1327 18.6739C17.3777 18.5724 17.5724 18.3777 17.6739 18.1327C17.75 17.9489 17.75 17.7159 17.75 17.25V8.25C17.75 7.78406 17.75 7.55109 17.6739 7.36732C17.5724 7.12229 17.3777 6.92761 17.1327 6.82612C16.9489 6.75 16.7159 6.75 16.25 6.75C15.7841 6.75 15.5511 6.75 15.3673 6.82612C15.1223 6.92761 14.9276 7.12229 14.8261 7.36732C14.75 7.55109 14.75 7.78406 14.75 8.25Z" stroke="#141B34" stroke-width="1.5" stroke-linecap="square" stroke-linejoin="round"/>
<path d="M3.75 4.25C3.75 5.07843 3.07843 5.75 2.25 5.75C1.42157 5.75 0.75 5.07843 0.75 4.25C0.75 3.42157 1.42157 2.75 2.25 2.75C3.07843 2.75 3.75 3.42157 3.75 4.25Z" stroke="#141B34" stroke-width="1.5"/>
<path d="M17.75 2.25C17.75 3.07843 17.0784 3.75 16.25 3.75C15.4216 3.75 14.75 3.07843 14.75 2.25C14.75 1.42157 15.4216 0.75 16.25 0.75C17.0784 0.75 17.75 1.42157 17.75 2.25Z" stroke="#141B34" stroke-width="1.5"/>
<path d="M10.75 6.25C10.75 7.07843 10.0784 7.75 9.25 7.75C8.42157 7.75 7.75 7.07843 7.75 6.25C7.75 5.42157 8.42157 4.75 9.25 4.75C10.0784 4.75 10.75 5.42157 10.75 6.25Z" stroke="#141B34" stroke-width="1.5"/>
<path d="M3.69336 4.66199L7.80805 5.83762M10.5533 5.50547L14.9481 2.99414" stroke="#141B34" stroke-width="1.5"/>
</svg>
