<svg width="301" height="288" viewBox="0 0 301 288" fill="none" xmlns="http://www.w3.org/2000/svg">
<path d="M268 268C268 279.046 259.046 288 248 288H20C8.95431 288 0 279.046 0 268V122H24V244C24 255.046 32.9543 264 44 264H224C235.046 264 244 255.046 244 244V122H268V268Z" fill="white"/>
<path fill-rule="evenodd" clip-rule="evenodd" d="M103.235 146.75L151.719 173.747L165.901 154.016C169.459 159.958 175.94 163.948 183.358 163.998L162.759 192.657L157.559 199.891L149.774 195.557L99.4157 167.516L56.3014 202.5C52.0129 205.98 45.7149 205.324 42.235 201.036C38.7555 196.747 39.4106 190.449 43.6989 186.969L92.068 147.722L97.3229 143.458L103.235 146.75ZM244.642 44.4701C247.866 39.9857 254.115 38.9635 258.599 42.1869C263.083 45.4103 264.106 51.6585 260.882 56.143L202.888 136.827C200.581 130.121 194.893 124.99 187.86 123.466L244.642 44.4701Z" fill="white"/>
<path d="M183.5 116C198.688 116 211 128.312 211 143.5C211 158.688 198.688 171 183.5 171C168.312 171 156 158.688 156 143.5C156 128.312 168.312 116 183.5 116ZM183.5 122.25C171.764 122.25 162.25 131.764 162.25 143.5C162.25 155.236 171.764 164.75 183.5 164.75C195.236 164.75 204.75 155.236 204.75 143.5C204.75 131.764 195.236 122.25 183.5 122.25Z" fill="white"/>
<circle cx="183.5" cy="143.5" r="10.5" fill="white"/>
<path d="M271.717 19.2928C273.815 18.327 276.172 19.9943 275.959 22.2939L272.191 63.0676C271.979 65.3672 269.356 66.5744 267.471 65.2406L234.044 41.5905C232.159 40.2566 232.425 37.3821 234.522 36.4164L271.717 19.2928Z" fill="white"/>
</svg>
