<svg width="598" height="262" viewBox="0 0 598 262" fill="none" xmlns="http://www.w3.org/2000/svg">
<path d="M495 0C500.522 0 505 4.47715 505 10V252C505 257.523 500.522 262 495 262H107C101.477 262 96.9995 257.523 96.9995 252V10C96.9995 4.47715 101.477 8.85855e-08 107 0H495ZM131 25C125.477 25 121 29.4772 121 35V230C121 235.523 125.477 240 131 240H471C476.522 240 481 235.523 481 230V35C481 29.4772 476.522 25 471 25H131Z" fill="white"/>
<rect x="113" y="184" width="376" height="25" fill="white"/>
<path d="M246 55C258.15 55 268 64.8497 268 77C268 89.1503 258.15 99 246 99C233.849 99 224 89.1503 224 77C224 64.8497 233.849 55 246 55ZM246 60C236.611 60 229 67.6112 229 77C229 86.3888 236.611 94 246 94C255.388 94 263 86.3888 263 77C263 67.6112 255.388 60 246 60Z" fill="white"/>
<path fill-rule="evenodd" clip-rule="evenodd" d="M416.335 62.578C419.881 58.3447 426.188 57.7882 430.422 61.3348C434.655 64.8817 435.212 71.1884 431.665 75.4217L369.665 149.422L364.025 156.153L356.622 151.431L259.907 89.7323C264.256 85.8847 267 80.2634 267 73.9999C267 72.7479 266.889 71.5217 266.679 70.33L359.974 129.846L416.335 62.578ZM225.029 72.8827C225.01 73.2526 225 73.6251 225 73.9999C225 81.1543 228.579 87.4719 234.043 91.2635L184.218 130.831C179.893 134.265 173.603 133.544 170.169 129.219C166.734 124.894 167.456 118.603 171.781 115.169L225.029 72.8827Z" fill="white"/>
<circle cx="246" cy="77" r="8" fill="white"/>
<path d="M440.803 41.4345C442.906 40.4802 445.254 42.1604 445.029 44.4588L441.898 76.4313C441.673 78.7297 439.044 79.9226 437.166 78.5784L411.042 59.8806C409.164 58.5365 409.446 55.6635 411.549 54.7092L440.803 41.4345Z" fill="white"/>
<path d="M24.9995 137H78.9995" stroke="white" stroke-width="20"/>
<path d="M6.19992 140.62C3.52244 139.099 3.49525 135.25 6.15097 133.692L31.3191 118.923C33.9748 117.365 37.3216 119.266 37.3434 122.345L37.5496 151.525C37.5714 154.604 34.2517 156.552 31.5742 155.032L6.19992 140.62Z" fill="white"/>
<path d="M574 129.733H523" stroke="white" stroke-width="20"/>
<path d="M591.81 133.344C594.487 131.824 594.515 127.975 591.859 126.416L568.57 112.75C565.914 111.192 562.567 113.093 562.546 116.172L562.355 143.174C562.333 146.253 565.653 148.201 568.33 146.68L591.81 133.344Z" fill="white"/>
</svg>
